<?xml version="1.0" encoding="UTF-8"?>
<!DOCTYPE svg PUBLIC "-//W3C//DTD SVG 1.1//EN" "http://www.w3.org/Graphics/SVG/1.1/DTD/svg11.dtd">
<svg xmlns="http://www.w3.org/2000/svg" version="1.1" width="192px" height="192px" style="shape-rendering:geometricPrecision; text-rendering:geometricPrecision; image-rendering:optimizeQuality; fill-rule:evenodd; clip-rule:evenodd" xmlns:xlink="http://www.w3.org/1999/xlink">
<g><path style="opacity:0.966" fill="#ddcae3" d="M 72.5,-0.5 C 87.8333,-0.5 103.167,-0.5 118.5,-0.5C 155.822,10.8221 180.155,35.1554 191.5,72.5C 191.5,87.8333 191.5,103.167 191.5,118.5C 180.159,155.841 155.826,180.174 118.5,191.5C 103.167,191.5 87.8333,191.5 72.5,191.5C 35.1667,180.167 10.8333,155.833 -0.5,118.5C -0.5,103.167 -0.5,87.8333 -0.5,72.5C 10.8071,35.1929 35.1404,10.8596 72.5,-0.5 Z M 42.5,36.5 C 46.8839,36.1744 51.2172,36.5078 55.5,37.5C 68.3056,70.7256 80.8056,104.059 93,137.5C 94.6667,138.833 96.3333,138.833 98,137.5C 110.402,104.128 122.902,70.7946 135.5,37.5C 139.783,36.5078 144.116,36.1744 148.5,36.5C 133.949,75.5706 119.116,114.571 104,153.5C 98.3333,154.833 92.6667,154.833 87,153.5C 72.6196,114.299 57.7863,75.2987 42.5,36.5 Z"/></g>
</svg>
